{
  "accessors": [
    {
      "bufferView": 2,
      "componentType": 5126,
      "count": 2386,
      "max": [
        0.19142013788223267,
        0.1600000560283661,
        0.3350093364715576
      ],
      "min": [
        -0.19142013788223267,
        -0.0012459384743124247,
        -0.3350093960762024
      ],
      "type": "VEC3"
    },
    {
      "bufferView": 2,
      "byteOffset": 28632,
      "componentType": 5126,
      "count": 2386,
      "max": [
        0.9964873790740967,
        0.9965000152587891,
        0.9938415288925171
      ],
      "min": [
        -0.9964873790740967,
        -0.9986083507537842,
        -0.9938415288925171
      ],
      "type": "VEC3"
    },
    {
      "bufferView": 1,
      "componentType": 5126,
      "count": 2386,
      "max": [
        0.9764392971992493,
        0.9727070331573486
      ],
      "min": [
        0.02356063574552536,
        0.02356060966849327
      ],
      "type": "VEC2"
    },
    {
      "bufferView": 0,
      "componentType": 5125,
      "count": 10404,
      "type": "SCALAR"
    }
  ],
  "asset": {
    "extras": {
      "author": "GeniusPilot2016 (https://sketchfab.com/GeniusPilot2016)",
      "license": "CC-BY-4.0 (http://creativecommons.org/licenses/by/4.0/)",
      "source": "https://sketchfab.com/3d-models/pet-food-and-water-bowl-78eb7cc639dc4c3ba7d1de4e1712df15",
      "title": "Pet Food and Water Bowl"
    },
    "generator": "Sketchfab-15.36.0",
    "version": "2.0"
  },
  "bufferViews": [
    {
      "buffer": 0,
      "byteLength": 41616,
      "name": "floatBufferViews",
      "target": 34963
    },
    {
      "buffer": 0,
      "byteLength": 19088,
      "byteOffset": 41616,
      "byteStride": 8,
      "name": "floatBufferViews",
      "target": 34962
    },
    {
      "buffer": 0,
      "byteLength": 57264,
      "byteOffset": 60704,
      "byteStride": 12,
      "name": "floatBufferViews",
      "target": 34962
    }
  ],
  "buffers": [
    {
      "byteLength": 117968,
      "uri": "scene.bin"
    }
  ],
  "materials": [
    {
      "doubleSided": true,
      "name": "plastic",
      "pbrMetallicRoughness": {
        "baseColorFactor": [
          0.214975,
          0.8,
          0.667945,
          1.0
        ],
        "metallicFactor": 0.0,
        "roughnessFactor": 0.5
      }
    }
  ],
  "meshes": [
    {
      "name": "Object_0",
      "primitives": [
        {
          "attributes": {
            "NORMAL": 1,
            "POSITION": 0,
            "TEXCOORD_0": 2
          },
          "indices": 3,
          "material": 0,
          "mode": 4
        }
      ]
    }
  ],
  "nodes": [
    {
      "children": [
        1
      ],
      "matrix": [
        1.0,
        0.0,
        0.0,
        0.0,
        0.0,
        2.220446049250313e-16,
        -1.0,
        0.0,
        0.0,
        1.0,
        2.220446049250313e-16,
        0.0,
        0.0,
        0.0,
        0.0,
        1.0
      ],
      "name": "Sketchfab_model"
    },
    {
      "children": [
        2
      ],
      "name": "root"
    },
    {
      "children": [
        3
      ],
      "matrix": [
        1.0,
        0.0,
        0.0,
        0.0,
        0.0,
        2.220446049250313e-16,
        1.0,
        0.0,
        0.0,
        -1.0,
        2.220446049250313e-16,
        0.0,
        0.0,
        0.0,
        0.0,
        1.0
      ],
      "name": "GLTF_SceneRootNode"
    },
    {
      "children": [
        4
      ],
      "matrix": [
        8.429369480200677e-08,
        0.0,
        -0.9999999999999966,
        0.0,
        0.0,
        1.0,
        0.0,
        0.0,
        0.9999999999999966,
        0.0,
        8.429369480200677e-08,
        0.0,
        0.5,
        0.0,
        0.5,
        1.0
      ],
      "name": "Cube_2"
    },
    {
      "mesh": 0,
      "name": "Object_4"
    }
  ],
  "scene": 0,
  "scenes": [
    {
      "name": "Sketchfab_Scene",
      "nodes": [
        0
      ]
    }
  ]
}
